# xmcd
#
# Track frame offsets: 
#        150
#        14785
#        27362
#        50752
#        69010
#        84537
#        104907
#        120230
#        143722
#        161535
#        178627
#        194580
#        209842
#
# Disc length: 3085 seconds
#
# Revision: 2
# Processed by: cddbd v1.5.2PL0 Copyright (c) Steve Scherf et al.
# Submitted via: ExactAudioCopy v0.99pb4
#
DISCID=bf0c0b0d
DTITLE=Kanye West - Graduation
DYEAR=2007
DGENRE=Hip-Hop
TTITLE0=Good Morning (Intro)
TTITLE1=Champion
TTITLE2=Stronger
TTITLE3=I Wonder
TTITLE4=Good Life (feat. T-Pain)
TTITLE5=Can't Tell Me Nothing
TTITLE6=Barry Bonds (feat. Lil Wayne)
TTITLE7=Drunk And Hot Girls (feat. Mos Def)
TTITLE8=Flashing Lights
TTITLE9=Everything I Am
TTITLE10=The Glory
TTITLE11=Homecoming (feat. Chris Martin)
TTITLE12=Big Brother
EXTD=
EXTT0=
EXTT1=
EXTT2=
EXTT3=
EXTT4=
EXTT5=
EXTT6=
EXTT7=
EXTT8=
EXTT9=
EXTT10=
EXTT11=
EXTT12=
PLAYORDER=
